<svg width="26" height="26" viewBox="0 0 26 26" fill="none" xmlns="http://www.w3.org/2000/svg">
<path d="M2.9767 21.9375C2.45468 21.9375 2.0086 21.7516 1.63846 21.3799C1.26832 21.0081 1.08325 20.5613 1.08325 20.0392C1.08325 19.5172 1.26827 19.0712 1.6383 18.701C2.00833 18.3309 2.45315 18.1458 2.97277 18.1458C3.06726 18.1458 3.15964 18.1503 3.24992 18.1594C3.3402 18.1684 3.45756 18.191 3.602 18.2271L9.01867 12.8104C8.98256 12.666 8.95999 12.5486 8.95096 12.4583C8.94193 12.368 8.93742 12.2757 8.93742 12.1812C8.93742 11.6616 9.12329 11.2167 9.49504 10.8467C9.86677 10.4767 10.3136 10.2917 10.8357 10.2917C11.3577 10.2917 11.8037 10.4779 12.1739 10.8505C12.544 11.2231 12.7291 11.6709 12.7291 12.1941C12.7291 12.2258 12.702 12.4312 12.6478 12.8104L15.627 15.7896C15.7714 15.7535 15.8888 15.7309 15.9791 15.7219C16.0694 15.7128 16.1596 15.7083 16.2499 15.7083C16.3402 15.7083 16.4305 15.7128 16.5208 15.7219C16.611 15.7309 16.7284 15.7535 16.8728 15.7896L21.2062 11.4562C21.1701 11.3118 21.1475 11.1944 21.1385 11.1042C21.1294 11.0139 21.1249 10.9215 21.1249 10.827C21.1249 10.3074 21.3108 9.86257 21.6825 9.49253C22.0543 9.1225 22.5011 8.93749 23.0232 8.93749C23.5452 8.93749 23.9912 9.12336 24.3614 9.49511C24.7315 9.86684 24.9166 10.3137 24.9166 10.8357C24.9166 11.3577 24.7316 11.8038 24.3615 12.1739C23.9915 12.5441 23.5467 12.7292 23.0271 12.7292C22.9326 12.7292 22.8402 12.7246 22.7499 12.7156C22.6596 12.7066 22.5423 12.684 22.3978 12.6479L18.0645 16.9812C18.1006 17.1257 18.1232 17.243 18.1322 17.3333C18.1412 17.4236 18.1458 17.516 18.1458 17.6105C18.1458 18.1301 17.9599 18.5749 17.5881 18.9449C17.2164 19.315 16.7695 19.5 16.2475 19.5C15.7255 19.5 15.2794 19.315 14.9093 18.9449C14.5392 18.5749 14.3541 18.1301 14.3541 17.6105C14.3541 17.516 14.3586 17.4236 14.3676 17.3333C14.3767 17.243 14.3992 17.1257 14.4353 16.9812L11.4562 14.0021C11.3117 14.0382 11.1944 14.0608 11.1041 14.0698C11.0138 14.0788 10.9213 14.0833 10.8265 14.0833C10.7949 14.0833 10.5895 14.0562 10.2103 14.0021L4.79367 19.4187C4.82978 19.5632 4.85235 19.6805 4.86138 19.7708C4.8704 19.8611 4.87492 19.9535 4.87492 20.048C4.87492 20.5676 4.68905 21.0124 4.3173 21.3824C3.94557 21.7525 3.49871 21.9375 2.9767 21.9375ZM4.33325 9.96666L3.78473 8.78184L2.59992 8.23332L3.78473 7.6848L4.33325 6.49999L4.88177 7.6848L6.06659 8.23332L4.88177 8.78184L4.33325 9.96666ZM16.2499 8.58541L15.418 6.79024L13.6228 5.95832L15.418 5.1264L16.2499 3.33124L17.0818 5.1264L18.877 5.95832L17.0818 6.79024L16.2499 8.58541Z" fill="white"/>
</svg>
