<svg width="964" height="676" viewBox="0 0 964 676" fill="none" xmlns="http://www.w3.org/2000/svg">
<g clip-path="url(#clip0_31_2024)">
<path d="M373.898 635.939C396.947 563.998 392.588 518.895 360.823 500.629C313.175 473.23 199.878 462.271 152.52 402.835C105.163 343.401 -39.2333 389.348 -63.9285 491.356C-88.6238 593.365 -133.088 750.593 101.374 750.593C257.684 750.593 348.524 712.376 373.898 635.939Z" fill="#FFFA72"/>
<path d="M757.714 493.898C822.252 292.465 810.047 166.176 721.106 115.031C587.691 38.3139 270.459 7.62761 137.856 -158.792C5.25823 -325.208 -399.053 -196.557 -468.199 89.0669C-537.346 374.69 -661.844 814.929 -5.35195 814.93C432.314 814.93 686.666 707.921 757.714 493.898Z" fill="#111111"/>
<path d="M725.729 505.734C786.81 315.092 775.259 195.569 691.083 147.164C564.815 74.5569 264.577 45.5145 139.078 -111.99C13.5836 -269.491 -369.068 -147.731 -434.51 122.591C-499.953 392.913 -617.782 809.568 3.54184 809.568C417.762 809.568 658.488 708.292 725.729 505.734Z" fill="#151515"/>
<path d="M693.745 517.571C751.368 337.72 740.471 224.962 661.059 179.297C541.939 110.8 258.695 83.4014 140.3 -65.1875C21.909 -213.773 -339.083 -98.9059 -400.821 156.115C-462.559 411.136 -573.719 804.207 12.4356 804.207C403.209 804.207 630.309 708.664 693.745 517.571Z" fill="#1A1A1A"/>
<path d="M661.76 529.408C715.926 360.348 705.682 254.356 631.035 211.431C519.062 147.043 252.814 121.288 141.522 -18.3851C30.2344 -158.056 -309.098 -50.0805 -367.132 189.639C-425.166 429.359 -529.656 798.845 21.3294 798.845C388.656 798.845 602.131 709.035 661.76 529.408Z" fill="#1E1E1E"/>
<path d="M629.775 541.245C680.484 382.976 670.894 283.749 601.012 243.564C496.186 183.286 246.932 159.175 142.744 28.4172C38.5598 -102.338 -279.113 -1.255 -333.443 223.163C-387.772 447.582 -485.593 793.484 30.2232 793.484C374.104 793.484 573.952 709.406 629.775 541.245Z" fill="#222222"/>
<path d="M597.791 553.081C645.041 405.604 636.106 313.142 570.988 275.697C473.31 219.529 241.05 197.062 143.966 75.2194C46.8853 -46.6211 -249.128 47.5703 -299.753 256.688C-350.379 465.805 -441.529 788.123 39.1172 788.123C359.551 788.123 545.774 709.777 597.791 553.081Z" fill="#262626"/>
<path d="M565.806 564.918C609.599 428.232 601.318 342.535 540.965 307.83C450.434 255.772 235.169 234.949 145.188 122.022C55.2109 9.09635 -219.143 96.3957 -266.064 290.212C-312.985 484.028 -397.466 782.761 48.0112 782.761C344.999 782.761 517.595 710.148 565.806 564.918Z" fill="#2B2B2B"/>
<path d="M533.821 576.755C574.157 450.859 566.529 371.929 510.941 339.963C427.557 292.015 229.287 272.836 146.41 168.824C63.5364 64.8139 -189.158 145.221 -232.375 323.736C-275.591 502.25 -353.403 777.4 56.905 777.4C330.446 777.4 489.417 710.52 533.821 576.755Z" fill="#2F2F2F"/>
<path d="M501.836 588.592C538.715 473.487 531.741 401.322 480.918 372.096C404.681 328.258 223.405 310.723 147.632 215.626C71.8617 120.531 -159.173 194.046 -198.686 357.26C-238.198 520.473 -309.34 772.039 65.7987 772.039C315.894 772.039 461.238 710.891 501.836 588.592Z" fill="#333333"/>
<path d="M469.852 600.429C503.273 496.115 496.953 430.715 450.894 404.23C381.804 364.501 217.523 348.61 148.854 262.429C80.1872 176.249 -129.188 242.872 -164.996 390.784C-200.804 538.696 -265.277 766.677 74.6926 766.677C301.341 766.677 433.059 711.262 469.852 600.429Z" fill="#373737"/>
<path d="M437.867 612.265C467.831 518.743 462.165 460.109 420.871 436.363C358.928 400.744 211.642 386.497 150.076 309.231C88.5126 231.966 -99.2031 291.697 -131.307 424.308C-163.411 556.919 -221.214 761.316 83.5865 761.316C286.789 761.316 404.881 711.633 437.867 612.265Z" fill="#3C3C3C"/>
<path d="M405.882 624.102C432.389 541.371 427.376 489.502 390.847 468.496C336.052 436.987 205.76 424.384 151.298 356.033C96.8381 287.684 -69.2182 340.523 -97.6178 457.832C-126.017 575.142 -177.151 755.954 92.4803 755.954C272.236 755.954 376.702 712.005 405.882 624.102Z" fill="#404040"/>
</g>
<defs>
<clipPath id="clip0_31_2024">
<rect width="964" height="676" fill="white" transform="translate(964 676) rotate(-180)"/>
</clipPath>
</defs>
</svg>
