<svg width="25" height="25" viewBox="0 0 25 25" fill="none" xmlns="http://www.w3.org/2000/svg">
<path d="M12.3699 21.3542C12.4567 21.3542 12.5565 21.3325 12.6694 21.2891C12.7822 21.2457 12.8733 21.1892 12.9428 21.1198L21.7188 12.3177C21.9445 12.092 22.1138 11.8345 22.2266 11.5451C22.3395 11.2558 22.3959 10.9664 22.3959 10.6771C22.3959 10.3819 22.3395 10.0868 22.2266 9.79167C22.1138 9.49653 21.9445 9.23611 21.7188 9.01042L17.0313 4.32292C16.8056 4.09722 16.5452 3.92795 16.2501 3.8151C15.9549 3.70226 15.6598 3.64583 15.3647 3.64583C15.0753 3.64583 14.786 3.70226 14.4966 3.8151C14.2073 3.92795 13.9497 4.09722 13.724 4.32292L13.2553 4.79167L15.3647 6.92708C15.5904 7.17014 15.79 7.45226 15.9636 7.77344C16.1372 8.09462 16.224 8.44618 16.224 8.82813C16.224 9.48785 15.968 10.0694 15.4558 10.5729C14.9437 11.0764 14.3577 11.3281 13.698 11.3281C13.264 11.3281 12.9037 11.263 12.6173 11.1328C12.3308 11.0026 12.0688 10.8174 11.8312 10.5771L9.92196 8.67188L5.20842 13.3854C5.12161 13.4722 5.06085 13.5636 5.02612 13.6595C4.9914 13.7555 4.97404 13.8583 4.97404 13.9679C4.97404 14.1872 5.04782 14.3707 5.19539 14.5182C5.34296 14.6658 5.52671 14.7396 5.74662 14.7396C5.85657 14.7396 5.95928 14.7135 6.05477 14.6615C6.15026 14.6094 6.23272 14.5486 6.30217 14.4792L9.89592 10.8854L10.9897 11.9792L7.42196 15.5469C7.33515 15.6337 7.27439 15.7292 7.23967 15.8333C7.20494 15.9375 7.18758 16.0417 7.18758 16.1458C7.18758 16.3542 7.26571 16.5365 7.42196 16.6927C7.57821 16.849 7.7605 16.9271 7.96883 16.9271C8.073 16.9271 8.17282 16.9054 8.26831 16.862C8.3638 16.8186 8.44626 16.7622 8.51571 16.6927L12.1095 13.099L13.2032 14.1927L9.6355 17.7604C9.56605 17.8299 9.50963 17.9196 9.46623 18.0295C9.42282 18.1395 9.40112 18.2494 9.40112 18.3594C9.40112 18.5677 9.47925 18.75 9.6355 18.9062C9.79175 19.0625 9.97404 19.1406 10.1824 19.1406C10.2865 19.1406 10.382 19.1233 10.4688 19.0885C10.5556 19.0538 10.6424 18.9931 10.7292 18.9062L14.323 15.3125L15.4167 16.4063L11.823 20C11.7362 20.0868 11.6754 20.1823 11.6407 20.2865C11.606 20.3906 11.5886 20.4861 11.5886 20.5729C11.5886 20.816 11.6581 21.0069 11.797 21.1458C11.9358 21.2847 12.1268 21.3542 12.3699 21.3542ZM12.3715 22.9167C11.7975 22.9167 11.2848 22.704 10.8334 22.2786C10.382 21.8533 10.1129 21.3271 10.0261 20.7C9.43585 20.6153 8.94105 20.3733 8.54175 19.974C8.14244 19.5747 7.89939 19.0799 7.81258 18.4896C7.2223 18.4028 6.73185 18.1554 6.34123 17.7474C5.9506 17.3394 5.71189 16.849 5.62508 16.276C4.98272 16.1892 4.45321 15.9288 4.03654 15.4948C3.61987 15.0608 3.41154 14.5399 3.41154 13.9323C3.41154 13.6372 3.46991 13.3416 3.58664 13.0456C3.70338 12.7496 3.87071 12.4896 4.08862 12.2656L9.92196 6.43229L12.7865 9.29688C12.9254 9.43576 13.0759 9.54427 13.2379 9.6224C13.4 9.70052 13.562 9.73958 13.724 9.73958C13.9497 9.73958 14.1624 9.63976 14.3621 9.4401C14.5617 9.24045 14.6615 9.02644 14.6615 8.79807C14.6615 8.69658 14.6312 8.58073 14.5704 8.45052C14.5096 8.32031 14.4098 8.18576 14.2709 8.04688L10.547 4.32292C10.3213 4.09722 10.0608 3.92795 9.76571 3.8151C9.47057 3.70226 9.17543 3.64583 8.88029 3.64583C8.59093 3.64583 8.30158 3.70226 8.01224 3.8151C7.72289 3.92795 7.46587 4.09598 7.2412 4.31919L3.28133 8.28125C3.03828 8.52431 2.86901 8.78038 2.77352 9.04948C2.67803 9.31858 2.62161 9.6224 2.60425 9.96094C2.58689 10.2995 2.65199 10.6293 2.79956 10.9505C2.94713 11.2717 3.12508 11.5625 3.33341 11.8229L2.21362 12.9427C1.8664 12.5608 1.58428 12.1007 1.36727 11.5625C1.15026 11.0243 1.04175 10.4774 1.04175 9.92188C1.04175 9.40104 1.14157 8.90191 1.34123 8.42448C1.54088 7.94705 1.823 7.52604 2.18758 7.16146L6.11987 3.22917C6.50182 2.84722 6.93405 2.5651 7.41657 2.38281C7.8991 2.20052 8.39389 2.10938 8.90094 2.10938C9.40801 2.10938 9.90026 2.20052 10.3777 2.38281C10.8551 2.5651 11.2848 2.84722 11.6667 3.22917L12.1355 3.69792L12.6042 3.22917C12.9862 2.84722 13.4184 2.5651 13.9009 2.38281C14.3835 2.20052 14.8783 2.10938 15.3853 2.10938C15.8924 2.10938 16.3846 2.20052 16.8621 2.38281C17.3395 2.5651 17.7692 2.84722 18.1511 3.22917L22.8126 7.89063C23.1945 8.27257 23.481 8.70688 23.672 9.19357C23.8629 9.68025 23.9584 10.175 23.9584 10.6779C23.9584 11.1808 23.8629 11.671 23.672 12.1484C23.481 12.6259 23.1945 13.0556 22.8126 13.4375L14.0365 22.2135C13.8108 22.4392 13.5545 22.6128 13.2675 22.7344C12.9805 22.8559 12.6818 22.9167 12.3715 22.9167Z" fill="#EEEEEE"/>
</svg>
