<svg width="278" height="45" viewBox="0 0 278 45" fill="none" xmlns="http://www.w3.org/2000/svg">
<path d="M262.094 30.9688H263.812V29.3438C265.083 29.1979 266.073 28.8073 266.781 28.1719C267.49 27.5365 267.844 26.6875 267.844 25.625C267.844 24.5625 267.542 23.6979 266.938 23.0312C266.333 22.3646 265.312 21.7292 263.875 21.125C262.667 20.625 261.792 20.1771 261.25 19.7812C260.708 19.3854 260.438 18.8542 260.438 18.1875C260.438 17.5417 260.672 17.0312 261.141 16.6562C261.609 16.2812 262.25 16.0938 263.062 16.0938C263.688 16.0938 264.229 16.2396 264.688 16.5312C265.146 16.8229 265.531 17.2604 265.844 17.8438L267.344 17.125C266.99 16.3958 266.521 15.8229 265.938 15.4062C265.354 14.9896 264.667 14.7396 263.875 14.6562V13.0625H262.156V14.6562C261.094 14.8021 260.255 15.1927 259.641 15.8281C259.026 16.4635 258.719 17.25 258.719 18.1875C258.719 19.2083 259.031 20.0208 259.656 20.625C260.281 21.2292 261.219 21.7917 262.469 22.3125C263.865 22.8958 264.823 23.4219 265.344 23.8906C265.865 24.3594 266.125 24.9375 266.125 25.625C266.125 26.2917 265.849 26.8281 265.297 27.2344C264.745 27.6406 264.052 27.8438 263.219 27.8438C262.406 27.8438 261.682 27.6146 261.047 27.1562C260.411 26.6979 259.969 26.0729 259.719 25.2812L258.125 25.8125C258.562 26.7708 259.099 27.526 259.734 28.0781C260.37 28.6302 261.156 29.0312 262.094 29.2812V30.9688ZM263 34.5C261.292 34.5 259.677 34.1719 258.156 33.5156C256.635 32.8594 255.307 31.9635 254.172 30.8281C253.036 29.6927 252.141 28.3646 251.484 26.8438C250.828 25.3229 250.5 23.7083 250.5 22C250.5 20.2708 250.828 18.6458 251.484 17.125C252.141 15.6042 253.036 14.2812 254.172 13.1562C255.307 12.0312 256.635 11.1406 258.156 10.4844C259.677 9.82812 261.292 9.5 263 9.5C264.729 9.5 266.354 9.82812 267.875 10.4844C269.396 11.1406 270.719 12.0312 271.844 13.1562C272.969 14.2812 273.859 15.6042 274.516 17.125C275.172 18.6458 275.5 20.2708 275.5 22C275.5 23.7083 275.172 25.3229 274.516 26.8438C273.859 28.3646 272.969 29.6927 271.844 30.8281C270.719 31.9635 269.396 32.8594 267.875 33.5156C266.354 34.1719 264.729 34.5 263 34.5ZM263 32.625C265.958 32.625 268.469 31.5885 270.531 29.5156C272.594 27.4427 273.625 24.9375 273.625 22C273.625 19.0417 272.594 16.5312 270.531 14.4688C268.469 12.4062 265.958 11.375 263 11.375C260.062 11.375 257.557 12.4062 255.484 14.4688C253.411 16.5312 252.375 19.0417 252.375 22C252.375 24.9375 253.411 27.4427 255.484 29.5156C257.557 31.5885 260.062 32.625 263 32.625Z" fill="#00DCCA"/>
<path d="M8.55 33.21C7.19 33.21 6 32.97 4.98 32.49C3.96 32.01 3.16 31.36 2.58 30.54C2.02 29.72 1.7 28.81 1.62 27.81H3.03C3.19 28.91 3.7 29.89 4.56 30.75C5.44 31.61 6.77 32.04 8.55 32.04C9.59 32.04 10.49 31.85 11.25 31.47C12.03 31.09 12.63 30.57 13.05 29.91C13.47 29.25 13.68 28.52 13.68 27.72C13.68 26.7 13.43 25.89 12.93 25.29C12.45 24.69 11.84 24.24 11.1 23.94C10.38 23.64 9.4 23.32 8.16 22.98C6.8 22.62 5.7 22.26 4.86 21.9C4.04 21.54 3.34 20.99 2.76 20.25C2.2 19.49 1.92 18.46 1.92 17.16C1.92 16.16 2.18 15.25 2.7 14.43C3.24 13.59 4 12.93 4.98 12.45C5.96 11.97 7.09 11.73 8.37 11.73C10.23 11.73 11.73 12.19 12.87 13.11C14.01 14.03 14.69 15.16 14.91 16.5H13.47C13.35 15.96 13.08 15.41 12.66 14.85C12.26 14.29 11.68 13.83 10.92 13.47C10.18 13.09 9.29 12.9 8.25 12.9C6.85 12.9 5.67 13.29 4.71 14.07C3.75 14.83 3.27 15.85 3.27 17.13C3.27 18.15 3.52 18.97 4.02 19.59C4.52 20.19 5.13 20.65 5.85 20.97C6.59 21.27 7.58 21.58 8.82 21.9C10.2 22.28 11.29 22.65 12.09 23.01C12.91 23.35 13.6 23.9 14.16 24.66C14.74 25.4 15.03 26.41 15.03 27.69C15.03 28.63 14.78 29.52 14.28 30.36C13.78 31.2 13.04 31.89 12.06 32.43C11.1 32.95 9.93 33.21 8.55 33.21ZM38.7213 12.39V33H37.3713V15.21L29.4513 33H28.3713L20.4213 15.21V33H19.0713V12.39H20.5113L28.9113 31.23L37.3113 12.39H38.7213ZM55.6207 27.6H45.6307L43.6207 33H42.1507L49.8907 12.42H51.3907L59.1007 33H57.6307L55.6207 27.6ZM55.2007 26.46L50.6407 14.19L46.0507 26.46H55.2007ZM73.8593 33L68.4593 24.03H68.3393H63.8393V33H62.4893V11.94H68.2793C70.6193 11.94 72.3693 12.49 73.5293 13.59C74.7093 14.69 75.2993 16.15 75.2993 17.97C75.2993 19.59 74.8393 20.93 73.9193 21.99C73.0193 23.03 71.6993 23.67 69.9593 23.91L75.4793 33H73.8593ZM63.8393 22.89H68.3393C70.1993 22.89 71.5893 22.44 72.5093 21.54C73.4293 20.64 73.8893 19.45 73.8893 17.97C73.8893 14.75 72.0193 13.14 68.2793 13.14H63.8393V22.89ZM90.9457 11.94V13.08H84.9457V33H83.5957V13.08H77.5957V11.94H90.9457ZM112.577 12.15V14.94H103.727V21.09H110.627V23.88H103.727V33H100.307V12.15H112.577ZM119.166 12.15V33H115.746V12.15H119.166ZM140.786 33H137.366L127.076 17.43V33H123.656V12.12H127.076L137.366 27.66V12.12H140.786V33ZM157.847 28.74H149.117L147.617 33H144.047L151.517 12.12H155.477L162.947 33H159.347L157.847 28.74ZM156.887 25.95L153.497 16.26L150.077 25.95H156.887ZM183.325 33H179.905L169.615 17.43V33H166.195V12.12H169.615L179.905 27.66V12.12H183.325V33ZM186.676 22.53C186.676 20.49 187.146 18.66 188.086 17.04C189.046 15.42 190.336 14.16 191.956 13.26C193.596 12.34 195.386 11.88 197.326 11.88C199.546 11.88 201.516 12.43 203.236 13.53C204.976 14.61 206.236 16.15 207.016 18.15H202.906C202.366 17.05 201.616 16.23 200.656 15.69C199.696 15.15 198.586 14.88 197.326 14.88C195.946 14.88 194.716 15.19 193.636 15.81C192.556 16.43 191.706 17.32 191.086 18.48C190.486 19.64 190.186 20.99 190.186 22.53C190.186 24.07 190.486 25.42 191.086 26.58C191.706 27.74 192.556 28.64 193.636 29.28C194.716 29.9 195.946 30.21 197.326 30.21C198.586 30.21 199.696 29.94 200.656 29.4C201.616 28.86 202.366 28.04 202.906 26.94H207.016C206.236 28.94 204.976 30.48 203.236 31.56C201.516 32.64 199.546 33.18 197.326 33.18C195.366 33.18 193.576 32.73 191.956 31.83C190.336 30.91 189.046 29.64 188.086 28.02C187.146 26.4 186.676 24.57 186.676 22.53ZM214.44 14.91V21.03H221.64V23.82H214.44V30.21H222.54V33H211.02V12.12H222.54V14.91H214.44ZM233.622 33.21C232.222 33.21 230.962 32.97 229.842 32.49C228.722 31.99 227.842 31.29 227.202 30.39C226.562 29.49 226.242 28.44 226.242 27.24H229.902C229.982 28.14 230.332 28.88 230.952 29.46C231.592 30.04 232.482 30.33 233.622 30.33C234.802 30.33 235.722 30.05 236.382 29.49C237.042 28.91 237.372 28.17 237.372 27.27C237.372 26.57 237.162 26 236.742 25.56C236.342 25.12 235.832 24.78 235.212 24.54C234.612 24.3 233.772 24.04 232.692 23.76C231.332 23.4 230.222 23.04 229.362 22.68C228.522 22.3 227.802 21.72 227.202 20.94C226.602 20.16 226.302 19.12 226.302 17.82C226.302 16.62 226.602 15.57 227.202 14.67C227.802 13.77 228.642 13.08 229.722 12.6C230.802 12.12 232.052 11.88 233.472 11.88C235.492 11.88 237.142 12.39 238.422 13.41C239.722 14.41 240.442 15.79 240.582 17.55H236.802C236.742 16.79 236.382 16.14 235.722 15.6C235.062 15.06 234.192 14.79 233.112 14.79C232.132 14.79 231.332 15.04 230.712 15.54C230.092 16.04 229.782 16.76 229.782 17.7C229.782 18.34 229.972 18.87 230.352 19.29C230.752 19.69 231.252 20.01 231.852 20.25C232.452 20.49 233.272 20.75 234.312 21.03C235.692 21.41 236.812 21.79 237.672 22.17C238.552 22.55 239.292 23.14 239.892 23.94C240.512 24.72 240.822 25.77 240.822 27.09C240.822 28.15 240.532 29.15 239.952 30.09C239.392 31.03 238.562 31.79 237.462 32.37C236.382 32.93 235.102 33.21 233.622 33.21Z" fill="#EEEEEE"/>
</svg>
