<svg width="25" height="25" viewBox="0 0 25 25" fill="none" xmlns="http://www.w3.org/2000/svg">
<path d="M4.86979 10.651L7.63021 11.8229C7.94271 11.1979 8.27691 10.5816 8.63281 9.97396C8.98872 9.36632 9.36632 8.78472 9.76562 8.22916L7.70833 7.8125L4.86979 10.651ZM8.88021 12.7604L12.3438 16.224C13.3333 15.7726 14.2622 15.2604 15.1302 14.6875C15.9983 14.1146 16.7014 13.559 17.2396 13.0208C18.6458 11.6146 19.6788 10.1736 20.3385 8.69791C20.9983 7.22222 21.3542 5.55555 21.4062 3.69791C19.5486 3.75 17.8819 4.1059 16.4062 4.76562C14.9306 5.42534 13.4896 6.45833 12.0833 7.86458C11.5451 8.40277 10.9896 9.1059 10.4167 9.97396C9.84375 10.842 9.3316 11.7708 8.88021 12.7604ZM14.8438 10.2604C14.4965 9.91319 14.3229 9.4835 14.3229 8.97135C14.3229 8.4592 14.4965 8.02951 14.8438 7.68229C15.191 7.33507 15.6207 7.16146 16.1328 7.16146C16.645 7.16146 17.0747 7.33507 17.4219 7.68229C17.7691 8.02951 17.9427 8.4592 17.9427 8.97135C17.9427 9.4835 17.7691 9.91319 17.4219 10.2604C17.0747 10.6076 16.645 10.7812 16.1328 10.7812C15.6207 10.7812 15.191 10.6076 14.8438 10.2604ZM14.4531 20.2344L17.2917 17.3958L16.875 15.3385C16.3194 15.7378 15.7378 16.1154 15.1302 16.4714C14.5226 16.8273 13.9062 17.1615 13.2812 17.474L14.4531 20.2344ZM22.9427 2.16146C23.099 4.52257 22.8038 6.67534 22.0573 8.61979C21.3108 10.5642 20.0781 12.3958 18.3594 14.1146L18.3073 14.1667L18.2552 14.2187L18.8281 17.0833C18.8802 17.3437 18.8672 17.5955 18.7891 17.8385C18.7109 18.0816 18.5764 18.2986 18.3854 18.4896L13.9323 22.9687L11.7188 17.8125L7.29167 13.3854L2.13542 11.1719L6.61458 6.71875C6.80556 6.52777 7.02257 6.39323 7.26562 6.3151C7.50868 6.23698 7.76042 6.22396 8.02083 6.27604L10.8854 6.84896C10.9028 6.83159 10.9201 6.81857 10.9375 6.80989C10.9549 6.80121 10.9722 6.78819 10.9896 6.77083C12.7083 5.05208 14.5399 3.8151 16.4844 3.05989C18.4288 2.30468 20.5816 2.00521 22.9427 2.16146ZM3.88021 16.5365C4.48785 15.9288 5.23003 15.6207 6.10677 15.612C6.98351 15.6033 7.72569 15.9028 8.33333 16.5104C8.94097 17.1181 9.24045 17.8602 9.23177 18.737C9.22309 19.6137 8.91493 20.3559 8.30729 20.9635C7.8559 21.4149 7.15712 21.7882 6.21094 22.0833C5.26476 22.3785 3.84549 22.6562 1.95312 22.9167C2.21354 21.0243 2.48698 19.6007 2.77344 18.6458C3.0599 17.691 3.42882 16.9878 3.88021 16.5365ZM4.97396 17.6562C4.7309 17.9167 4.51389 18.3246 4.32292 18.8802C4.13194 19.4358 3.96701 20.1476 3.82812 21.0156C4.69618 20.8767 5.40799 20.7118 5.96354 20.5208C6.5191 20.3299 6.92708 20.1128 7.1875 19.8698C7.51736 19.5746 7.68663 19.2057 7.69531 18.763C7.70399 18.3203 7.55208 17.934 7.23958 17.6042C6.90972 17.2917 6.52344 17.1398 6.08073 17.1484C5.63802 17.1571 5.2691 17.3264 4.97396 17.6562Z" fill="#EEEEEE"/>
</svg>
