<svg width="500" height="500" viewBox="0 0 500 500" fill="none" xmlns="http://www.w3.org/2000/svg">
<path d="M423.01 422.6V309.75" stroke="#263238" stroke-linecap="round" stroke-linejoin="round"/>
<path d="M413.86 422.6V366.64" stroke="#263238" stroke-linecap="round" stroke-linejoin="round"/>
<path d="M425.87 328.25C425.87 328.25 416.65 327.2 412.87 319.9C409.09 312.6 408.73 293.77 423.09 272.9C437.45 252.03 444.98 251.81 447.48 268.84C449.98 285.87 449.62 310.6 443.74 319.97C437.86 329.34 425.87 328.25 425.87 328.25Z" fill="white" stroke="#263238" stroke-linecap="round" stroke-linejoin="round"/>
<path d="M429.14 288.94C430.84 283.14 432.87 277.94 435.23 274.38" stroke="#263238" stroke-linecap="round" stroke-linejoin="round"/>
<path d="M422 327C423.265 315.523 425.269 304.139 428 292.92" stroke="#263238" stroke-linecap="round" stroke-linejoin="round"/>
<path d="M431.36 364.88C431.36 364.88 425.44 360.29 425.92 353.69C426.4 347.09 434 333.94 452.61 325.6C471.22 317.26 476.53 320.22 471.13 333C465.73 345.78 455.13 362.69 447.13 366.69C439.13 370.69 431.36 364.88 431.36 364.88Z" fill="white" stroke="#263238" stroke-linecap="round" stroke-linejoin="round"/>
<path d="M450.07 339.14C453.67 335.86 457.25 333.14 460.36 331.66" stroke="#263238" stroke-linecap="round" stroke-linejoin="round"/>
<path d="M447.68 341.4C441.094 347.996 434.941 355.01 429.26 362.4C429.26 362.4 424.49 368.82 423.08 381.57" stroke="#263238" stroke-linecap="round" stroke-linejoin="round"/>
<path d="M428 403C428 403 424.57 400.34 424.85 396.52C425.13 392.7 429.53 385.08 440.32 380.24C451.11 375.4 454.17 377.13 451.04 384.54C447.91 391.95 441.77 401.74 437.15 404.05C432.53 406.36 428 403 428 403Z" fill="white" stroke="#263238" stroke-linecap="round" stroke-linejoin="round"/>
<path d="M438.81 388.13C440.593 386.408 442.614 384.95 444.81 383.8" stroke="#263238" stroke-linecap="round" stroke-linejoin="round"/>
<path d="M437.43 389.44C433.616 393.256 430.052 397.314 426.76 401.59C426.76 401.59 423.99 405.31 423.17 412.7" stroke="#263238" stroke-linecap="round" stroke-linejoin="round"/>
<path d="M414.65 349.62C414.65 349.62 420.56 345.03 420.09 338.43C419.62 331.83 412.01 318.68 393.39 310.34C374.77 302 369.48 304.96 374.88 317.74C380.28 330.52 390.88 347.43 398.88 351.43C406.88 355.43 414.65 349.62 414.65 349.62Z" fill="white" stroke="#263238" stroke-linecap="round" stroke-linejoin="round"/>
<path d="M395.94 323.88C392.875 320.915 389.408 318.397 385.64 316.4" stroke="#263238" stroke-linecap="round" stroke-linejoin="round"/>
<path d="M398.33 326.14C404.912 332.737 411.061 339.751 416.74 347.14C416.74 347.14 421.51 353.56 422.93 366.31" stroke="#263238" stroke-linecap="round" stroke-linejoin="round"/>
<path d="M411.74 400.59C411.74 400.59 417.74 400.78 420.74 397.17C423.74 393.56 425.54 383.48 418.04 371.17C410.54 358.86 405.75 358 402.75 367C399.75 376 398 389.19 401 394.7C404 400.21 411.74 400.59 411.74 400.59Z" fill="white" stroke="#263238" stroke-linecap="round" stroke-linejoin="round"/>
<path d="M412.68 391.41C412.77 392.64 412.83 393.87 412.86 395.09" stroke="#263238" stroke-linecap="round" stroke-linejoin="round"/>
<path d="M408.08 366.41C410.119 373.658 411.571 381.059 412.42 388.54" stroke="#263238" stroke-linecap="round" stroke-linejoin="round"/>
<path d="M470.803 134.885C481.074 109.192 468.573 80.0379 442.88 69.7669C417.188 59.4958 388.034 71.9973 377.762 97.6898C367.491 123.382 379.993 152.537 405.685 162.808C431.378 173.079 460.532 160.577 470.803 134.885Z" stroke="#263238" stroke-linecap="round" stroke-linejoin="round"/>
<path d="M424.3 160.03C448.451 160.03 468.03 140.451 468.03 116.3C468.03 92.1486 448.451 72.57 424.3 72.57C400.148 72.57 380.57 92.1486 380.57 116.3C380.57 140.451 400.148 160.03 424.3 160.03Z" stroke="#263238" stroke-linecap="round" stroke-linejoin="round"/>
<path d="M424.3 119.29C425.951 119.29 427.29 117.951 427.29 116.3C427.29 114.649 425.951 113.31 424.3 113.31C422.648 113.31 421.31 114.649 421.31 116.3C421.31 117.951 422.648 119.29 424.3 119.29Z" stroke="#263238" stroke-linecap="round" stroke-linejoin="round"/>
<path d="M424.3 119.29V133.98" stroke="#263238" stroke-linecap="round" stroke-linejoin="round"/>
<path d="M421.31 116.3H385.65" stroke="#263238" stroke-linecap="round" stroke-linejoin="round"/>
<path d="M196.77 237.22L180.29 211.64C190.332 195.406 193.736 175.929 189.796 157.251C185.856 138.574 174.873 122.132 159.129 111.338C143.385 100.545 124.089 96.2295 105.247 99.2884C86.4051 102.347 69.465 112.545 57.9441 127.765C46.4231 142.985 41.2063 162.057 43.3768 181.022C45.5473 199.986 54.9384 217.387 69.6003 229.61C84.2621 241.833 103.068 247.94 122.114 246.662C141.16 245.385 158.982 236.822 171.88 222.75L196.77 237.22Z" fill="#263238" stroke="#263238" stroke-linecap="round" stroke-linejoin="round"/>
<path d="M198.34 231L181.85 205.42C191.874 189.194 195.264 169.73 191.316 151.07C187.367 132.41 176.384 115.988 160.646 105.213C144.909 94.4376 125.626 90.1372 106.801 93.2045C87.9768 96.2718 71.0566 106.471 59.5537 121.685C48.0509 136.899 42.8492 155.958 45.0287 174.906C47.2081 193.854 56.6012 211.235 71.2578 223.44C85.9144 235.645 104.708 241.736 123.738 240.45C142.767 239.163 160.57 230.597 173.45 216.53L198.34 231Z" fill="white" stroke="#263238" stroke-linecap="round" stroke-linejoin="round"/>
<path d="M66.6404 177V170.07L78.0004 152.61C78.8604 151.32 79.6704 150.06 80.4404 148.85C81.1811 147.678 81.8105 146.439 82.3204 145.15C82.8102 143.895 83.0579 142.558 83.0504 141.21C83.1346 140.129 82.8451 139.053 82.2304 138.16C81.961 137.833 81.6195 137.572 81.2326 137.399C80.8458 137.225 80.4241 137.144 80.0004 137.16C79.5508 137.134 79.1006 137.199 78.6763 137.35C78.2521 137.501 77.8624 137.736 77.5304 138.04C76.909 138.689 76.4918 139.506 76.3304 140.39C76.1002 141.471 75.9895 142.575 76.0004 143.68V146H66.5204V143.48C66.4854 140.923 66.9438 138.383 67.8704 136C68.7156 133.849 70.2166 132.019 72.1604 130.77C74.4842 129.401 77.1561 128.737 79.8504 128.86C84.1238 128.86 87.3438 129.967 89.5104 132.18C91.6771 134.393 92.7638 137.477 92.7704 141.43C92.7885 143.253 92.4803 145.065 91.8604 146.78C91.2351 148.457 90.4269 150.06 89.4504 151.56C88.4504 153.11 87.3904 154.72 86.2504 156.41L77.5604 169.41H91.4804V177H66.6404Z" fill="#263238" stroke="#263238" stroke-linecap="round" stroke-linejoin="round"/>
<path d="M109.57 177V166.35H94.9404V159.13L107.34 129.47H118.73V159.07H123.13V166.35H118.73V177H109.57ZM102.4 159H109.57V139.28L102.4 159Z" fill="#263238" stroke="#263238" stroke-linecap="round" stroke-linejoin="round"/>
<path d="M126.78 177L141.34 129.43H146.51L131.89 177H126.78Z" fill="#263238" stroke="#263238" stroke-linecap="round" stroke-linejoin="round"/>
<path d="M152.85 177L163.19 136.89H150.19V129.43H172.74V136.18L162.43 177H152.85Z" fill="#263238" stroke="#263238" stroke-linecap="round" stroke-linejoin="round"/>
<path d="M75.8805 207.48C74.7144 207.523 73.5598 207.236 72.5505 206.65C71.6625 206.09 70.9652 205.274 70.5505 204.31C70.0763 203.193 69.7989 202.002 69.7305 200.79L71.7305 200.19C71.818 201.123 72.0023 202.045 72.2805 202.94C72.4975 203.695 72.9322 204.37 73.5305 204.88C74.1975 205.396 75.029 205.651 75.8705 205.6C76.7979 205.653 77.7105 205.349 78.4205 204.75C78.7517 204.386 79.0036 203.957 79.1603 203.491C79.317 203.024 79.3749 202.53 79.3305 202.04C79.3495 201.045 79.0709 200.066 78.5305 199.23C77.889 198.314 77.1478 197.472 76.3205 196.72L72.0005 192.56C71.2937 191.894 70.7143 191.104 70.2905 190.23C69.9239 189.402 69.7397 188.505 69.7505 187.6C69.704 186.875 69.8159 186.149 70.0784 185.472C70.3409 184.796 70.7477 184.184 71.2705 183.68C72.3849 182.738 73.8125 182.249 75.2705 182.31C76.0666 182.302 76.8593 182.417 77.6205 182.65C78.2996 182.858 78.9176 183.228 79.4205 183.73C79.9458 184.281 80.345 184.939 80.5905 185.66C80.8983 186.593 81.0931 187.56 81.1705 188.54L79.1705 189.06C79.1134 188.156 78.9455 187.263 78.6705 186.4C78.4625 185.728 78.0456 185.139 77.4805 184.72C76.8173 184.296 76.0364 184.092 75.2505 184.14C74.3531 184.1 73.4706 184.38 72.7605 184.93C72.4162 185.236 72.1469 185.617 71.9735 186.043C71.8 186.47 71.7272 186.931 71.7605 187.39C71.7526 188.017 71.8823 188.638 72.1405 189.21C72.5138 189.891 73.0086 190.497 73.6005 191L77.9405 195.1C78.9066 195.99 79.7567 196.998 80.4705 198.1C81.1789 199.229 81.5469 200.538 81.5305 201.87C81.5676 202.949 81.3192 204.018 80.8105 204.97C80.3542 205.786 79.6552 206.44 78.8105 206.84C77.8948 207.272 76.893 207.491 75.8805 207.48Z" fill="#263238" stroke="#263238" stroke-linecap="round" stroke-linejoin="round"/>
<path d="M84.6001 207.18V182.56H93.5001V184.35H86.9401V193.59H92.2901V195.29H86.9401V205.44H93.5701V207.18H84.6001Z" fill="#263238" stroke="#263238" stroke-linecap="round" stroke-linejoin="round"/>
<path d="M96.7305 207.18V182.56H102.29C103.543 182.499 104.791 182.754 105.92 183.3C106.785 183.779 107.456 184.542 107.82 185.46C108.232 186.531 108.429 187.673 108.4 188.82C108.407 189.69 108.303 190.557 108.09 191.4C107.925 192.159 107.582 192.868 107.09 193.47C106.549 194.07 105.819 194.465 105.02 194.59L108.79 207.18H106.54L102.93 195.08H99.0005V207.18H96.7305ZM99.0005 193.38H102.13C102.963 193.427 103.792 193.248 104.53 192.86C105.102 192.514 105.531 191.975 105.74 191.34C106.011 190.528 106.136 189.675 106.11 188.82C106.196 187.63 105.92 186.442 105.32 185.41C104.79 184.66 103.75 184.29 102.19 184.29H99.0005V193.38Z" fill="#263238" stroke="#263238" stroke-linecap="round" stroke-linejoin="round"/>
<path d="M112.35 207.18V182.56H114.66V207.18H112.35Z" fill="#263238" stroke="#263238" stroke-linecap="round" stroke-linejoin="round"/>
<path d="M123.38 207.18L117.61 182.56H119.83L124.48 203L128.85 182.61H131L125.44 207.23L123.38 207.18Z" fill="#263238" stroke="#263238" stroke-linecap="round" stroke-linejoin="round"/>
<path d="M134 207.18V182.56H136.31V207.18H134Z" fill="#263238" stroke="#263238" stroke-linecap="round" stroke-linejoin="round"/>
<path d="M146.36 207.48C145.005 207.576 143.656 207.225 142.52 206.48C141.609 205.783 140.952 204.807 140.65 203.7C140.289 202.439 140.114 201.132 140.13 199.82V190C140.111 188.648 140.289 187.3 140.66 186C140.974 184.913 141.643 183.962 142.56 183.3C143.692 182.58 145.02 182.23 146.36 182.3C147.579 182.236 148.789 182.532 149.84 183.15C150.691 183.738 151.327 184.588 151.65 185.57C152.037 186.771 152.223 188.028 152.2 189.29V190.78H150V189.36C150.013 188.43 149.926 187.501 149.74 186.59C149.614 185.887 149.242 185.253 148.69 184.8C148.006 184.326 147.18 184.1 146.35 184.16C145.471 184.1 144.596 184.339 143.87 184.84C143.292 185.341 142.898 186.02 142.75 186.77C142.547 187.72 142.449 188.689 142.46 189.66V200.15C142.443 201.161 142.56 202.17 142.81 203.15C142.978 203.887 143.399 204.542 144 205C144.699 205.44 145.516 205.653 146.34 205.61C147.175 205.666 148.002 205.429 148.68 204.94C149.232 204.454 149.603 203.794 149.73 203.07C149.914 202.145 150.001 201.203 149.99 200.26V198.65H152.18V200.11C152.199 201.405 152.027 202.695 151.67 203.94C151.391 204.976 150.771 205.889 149.91 206.53C148.857 207.215 147.614 207.547 146.36 207.48Z" fill="#263238" stroke="#263238" stroke-linecap="round" stroke-linejoin="round"/>
<path d="M155.78 207.18V182.56H164.69V184.35H158.12V193.59H163.47V195.29H158.12V205.44H164.75V207.18H155.78Z" fill="#263238" stroke="#263238" stroke-linecap="round" stroke-linejoin="round"/>
<path d="M330.68 320.17H384.25C384.25 320.17 355.25 391.48 360.72 423.33H306.43C306.43 423.33 316.56 341.89 330.68 320.17Z" fill="#263238" stroke="#263238" stroke-linecap="round" stroke-linejoin="round"/>
<path d="M284.33 217.81C284.33 217.81 284.86 227.46 302.83 233.09C320.8 238.72 339.04 233.09 349.23 241.09C359.42 249.09 359.15 261.47 355.66 267.64C352.17 273.81 346.54 279.97 363.17 287.21C379.8 294.45 369.87 315.64 362.9 323.42C355.93 331.2 343.9 334.95 330.45 332.27C317 329.59 301.22 297.14 284.06 279.97C266.9 262.8 264.8 231.13 275.75 222.05C286.7 212.97 284.33 217.81 284.33 217.81Z" fill="#263238" stroke="#263238" stroke-linecap="round" stroke-linejoin="round"/>
<path d="M281.57 183.1C281.57 183.1 288.97 179.87 290.87 186.1C292.77 192.33 293.33 209.45 293.33 209.45L289.33 208.5C289.33 208.5 290.28 189.14 285.91 186.1C281.54 183.06 278.13 189.9 278.13 189.9L281.57 183.1Z" fill="#A6A6A6" stroke="#263238" stroke-linecap="round" stroke-linejoin="round"/>
<path d="M198.5 391.38L223.78 377.86C223.78 377.86 222.03 351.33 222.28 350.33C222.53 349.33 228.86 297.42 228.86 297.42L211.52 348.83L198.5 391.38Z" fill="#263238" stroke="#263238" stroke-linecap="round" stroke-linejoin="round"/>
<path d="M310.26 270.76C310.26 270.76 335.26 284.38 338.62 285.76C341.98 287.14 340 304.51 340 315.86C340 327.21 323 423.06 323 423.06H197.1C197.1 423.06 218.37 390.45 218.94 381.94C219.51 373.43 215.82 366.62 215.25 358.4C214.68 350.18 226.88 299.97 228.86 297.4C230.84 294.83 239.36 288.33 239.36 288.33L269.42 262L283.32 258.88L310.26 270.76Z" fill="#51C7CC" stroke="#263238" stroke-linecap="round" stroke-linejoin="round"/>
<path d="M226.82 391.16L222.62 399.8" stroke="#263238" stroke-linecap="round" stroke-linejoin="round"/>
<path d="M230.85 366.34C230.85 366.34 224.61 370.59 227.73 372.86C230.85 375.13 232.27 379.95 232.27 379.95L228.27 387.74" stroke="#263238" stroke-linecap="round" stroke-linejoin="round"/>
<path d="M260.24 387C261.93 387.13 263.71 387.23 265.57 387.28" stroke="#263238" stroke-linecap="round" stroke-linejoin="round"/>
<path d="M233.39 380C233.39 380 240.18 384.54 254.97 386.48" stroke="#263238" stroke-linecap="round" stroke-linejoin="round"/>
<path d="M216.47 198.66C215.275 199.244 214.278 200.167 213.604 201.314C212.929 202.461 212.608 203.781 212.68 205.11C212.68 210.05 216.68 219.72 216.68 219.72L218.96 218.97C218.96 218.97 214.79 208.91 215.36 205.3C215.545 204.247 216.016 203.266 216.722 202.464C217.427 201.661 218.34 201.068 219.36 200.75L218.6 198.28L216.47 198.66Z" fill="#A6A6A6" stroke="#263238" stroke-linecap="round" stroke-linejoin="round"/>
<path d="M226.24 224.07C227.24 229.07 225.53 233.58 222.49 234.17C219.45 234.76 216.21 231.17 215.25 226.17C214.29 221.17 215.96 216.65 219 216.07C222.04 215.49 225.28 219.08 226.24 224.07Z" fill="white" stroke="#263238" stroke-linecap="round" stroke-linejoin="round"/>
<path d="M235.47 222.46C237.36 228.84 235.15 235.13 230.53 236.46C225.91 237.79 220.63 233.77 218.73 227.39C216.83 221.01 219.05 214.72 223.67 213.39C228.29 212.06 233.58 216.08 235.47 222.46Z" fill="#263238" stroke="#263238" stroke-linecap="round" stroke-linejoin="round"/>
<path d="M252.6 257.24L257.09 271.84L242.33 290.44L239.87 304.81C239.87 304.81 237.42 345.81 238.82 352.13C240.22 358.45 240.22 360.19 240.22 360.19C240.22 360.19 270.72 324.79 285.79 303.06C300.86 281.33 304.36 268 304.36 268L289.64 260L282.64 227.4L252.6 257.24Z" fill="white" stroke="#263238" stroke-linecap="round" stroke-linejoin="round"/>
<path d="M275.88 243.11L257.09 271.84L251.85 254.93L275.88 243.11Z" fill="#263238" stroke="#263238" stroke-linecap="round" stroke-linejoin="round"/>
<path d="M240 304L239.86 304.81C239.86 304.81 237.41 345.81 238.81 352.13C240.21 358.45 240.21 360.19 240.21 360.19C240.21 360.19 270.71 324.79 285.78 303.06C286.96 301.36 288.06 299.71 289.11 298.11C270.24 304.57 251 304.68 240 304Z" fill="white" stroke="#263238" stroke-linecap="round" stroke-linejoin="round"/>
<path d="M232.61 167.73C232.61 167.73 218.56 176.27 217.04 189.17C215.52 202.07 220.84 215.93 222.93 221.43C225.02 226.93 232.23 248.38 236.02 252.56C239.81 256.74 252.15 262.99 254.24 264.13C256.33 265.27 260.12 264.89 263.35 262.61C266.58 260.33 279.86 244.21 281.95 240.41C284.04 236.61 284.41 228.26 284.41 228.26C284.41 228.26 284.03 211.56 283.28 200.75C282.53 189.94 283.09 179.49 274.17 170.38C265.25 161.27 241.34 161.08 232.61 167.73Z" fill="white" stroke="#263238" stroke-linecap="round" stroke-linejoin="round"/>
<path d="M283.28 200.75C282.52 189.93 283.09 179.49 274.17 170.38C265.25 161.27 241.34 161.08 232.61 167.73C232.61 167.73 218.56 176.27 217.04 189.17C216.16 196.67 217.59 204.47 219.34 210.79C222.57 208.79 233.47 202.11 245.7 193.54C260.31 183.29 265.06 167.35 265.06 167.35C265.06 167.35 266.76 166.4 266.39 168.49C266.02 170.58 260.31 182.91 258.23 184.81L256.14 186.7C256.14 186.7 257.85 186.32 265.63 195.62C273.41 204.92 277.77 208.72 280.05 209.86C281.261 210.298 282.533 210.544 283.82 210.59C283.67 207.18 283.49 203.74 283.28 200.75Z" fill="#263238" stroke="#263238" stroke-linecap="round" stroke-linejoin="round"/>
<path d="M259.91 220.87C260.15 222.26 259.64 223.52 258.76 223.67C257.88 223.82 256.98 222.82 256.76 221.43C256.54 220.04 257.03 218.78 257.91 218.62C258.79 218.46 259.66 219.48 259.91 220.87Z" fill="#263238" stroke="#263238" stroke-linecap="round" stroke-linejoin="round"/>
<path d="M238.65 223.9C238.9 225.3 238.39 226.55 237.51 226.71C236.63 226.87 235.72 225.86 235.51 224.46C235.3 223.06 235.77 221.82 236.65 221.66C237.53 221.5 238.41 222.51 238.65 223.9Z" fill="#263238" stroke="#263238" stroke-linecap="round" stroke-linejoin="round"/>
<path d="M251.2 212.32C251.2 212.32 257.47 207.39 263.2 211.37" stroke="#263238" stroke-linecap="round" stroke-linejoin="round"/>
<path d="M238.49 215C238.49 215 231.09 211.39 225.96 217.85" stroke="#263238" stroke-linecap="round" stroke-linejoin="round"/>
<path d="M239.82 215.17C239.82 215.17 244.94 217.64 245.32 222.38" stroke="#263238" stroke-linecap="round" stroke-linejoin="round"/>
<path d="M245.51 235.48C245.51 235.48 247.6 236.99 251.2 235.86" stroke="#263238" stroke-linecap="round" stroke-linejoin="round"/>
<path d="M244 243.45C248.254 243.267 252.437 242.301 256.34 240.6C262.98 237.75 265.64 233.77 265.64 233.77" stroke="#263238" stroke-linecap="round" stroke-linejoin="round"/>
<path d="M247.22 243.26C248.738 244.602 250.694 245.342 252.72 245.34C256.14 245.34 259.17 239.27 259.17 239.27C259.17 239.27 250.44 243.07 247.22 243.26Z" stroke="#263238" stroke-linecap="round" stroke-linejoin="round"/>
<path d="M286.69 229.21C291.512 229.21 295.42 223.815 295.42 217.16C295.42 210.505 291.512 205.11 286.69 205.11C281.869 205.11 277.96 210.505 277.96 217.16C277.96 223.815 281.869 229.21 286.69 229.21Z" fill="#263238" stroke="#263238" stroke-linecap="round" stroke-linejoin="round"/>
<path d="M290.39 224.28C293.483 224.28 295.99 220.161 295.99 215.08C295.99 209.999 293.483 205.88 290.39 205.88C287.297 205.88 284.79 209.999 284.79 215.08C284.79 220.161 287.297 224.28 290.39 224.28Z" fill="white" stroke="#263238" stroke-linecap="round" stroke-linejoin="round"/>
<path d="M222.49 230C222.49 230 222.55 249.72 227.67 251.43C232.79 253.14 246.84 249.72 246.84 249.72" stroke="#263238" stroke-width="2" stroke-linecap="round" stroke-linejoin="round"/>
<path d="M254.05 249.64C254.05 251.16 252.18 252.39 249.87 252.39C247.56 252.39 245.7 251.16 245.7 249.64C245.7 248.12 247.57 246.89 249.87 246.89C252.17 246.89 254.05 248.12 254.05 249.64Z" fill="#263238" stroke="#263238" stroke-linecap="round" stroke-linejoin="round"/>
<path d="M255.24 272.75C255.24 272.75 249.24 283.24 245.03 314.44C240.82 345.64 243.61 351.87 243.61 351.87L237.61 355.56C237.61 355.56 225.14 354.14 229.39 324.65C233.64 295.16 236 290.33 236 290.33L255.24 272.75Z" fill="#51C7CC" stroke="#263238" stroke-linecap="round" stroke-linejoin="round"/>
<path d="M293.24 262C293.24 262 279.63 294.33 265.45 314.47C251.27 334.61 232 363.5 232 363.5C232 363.5 242.21 358.68 263.77 342.5C285.33 326.32 307.16 289.18 309.43 285.5C311.7 281.82 315.1 273.31 315.1 273.31L293.24 262Z" fill="#51C7CC" stroke="#263238" stroke-linecap="round" stroke-linejoin="round"/>
<path d="M175.43 405.64C172.103 407.665 168.615 409.411 165 410.86C158.62 413.47 158 413.01 160.07 415.21C162.14 417.41 172.83 413.47 175.73 412.31C178.63 411.15 184.14 409.41 184.14 409.41C184.14 409.41 190.81 413.18 194.87 414.34C198.93 415.5 203.87 413.76 203.87 413.76C203.87 413.76 204.16 409.12 200.68 406.51C197.2 403.9 189.68 397.81 187.05 398.1C184.42 398.39 175.43 405.64 175.43 405.64Z" fill="white" stroke="#263238" stroke-linecap="round" stroke-linejoin="round"/>
<path d="M173.69 398.68C173.69 398.68 170.21 397.81 167.89 399.55C165.57 401.29 162.96 406.8 162.67 408.25C162.38 409.7 162.96 410.57 165.28 408.54C167.6 406.51 171.66 403.61 171.66 403.61L175.14 402.45L173.69 398.68Z" fill="white" stroke="#263238" stroke-linecap="round" stroke-linejoin="round"/>
<path d="M182.68 396.07C182.68 396.07 175.68 393.75 174.27 395.78C172.86 397.81 167.89 409.41 169.34 410.28C170.79 411.15 172.82 409.41 175.43 405.64C178.04 401.87 179.49 399.84 179.49 399.84L182.97 399.26L182.68 396.07Z" fill="white" stroke="#263238" stroke-linecap="round" stroke-linejoin="round"/>
<path d="M195.11 398.67C195.11 398.67 186.04 391.58 183.77 393.28C181.5 394.98 174.13 406.04 173.28 408.28C172.43 410.52 176.4 409.42 179.51 406.58C182.62 403.74 186.32 400.58 186.32 400.58L193.41 404.27L195.11 398.67Z" fill="white" stroke="#263238" stroke-linecap="round" stroke-linejoin="round"/>
<path d="M227.73 404.06C227.73 404.06 215.82 403.49 211 401.79C206.18 400.09 196.53 396.4 193.7 396.68C190.87 396.96 180.08 407.46 177.81 409.73C175.54 412 175.81 412.61 178.04 412.89C180.27 413.17 185.75 409.45 188.31 407.46C189.894 406.241 191.604 405.195 193.41 404.34C195.446 407.269 197.724 410.022 200.22 412.57C203.05 415.12 209.86 417.1 212.41 416.82C214.033 416.635 215.642 416.351 217.23 415.97L226.88 415.69L227.73 404.06Z" fill="white" stroke="#263238" stroke-linecap="round" stroke-linejoin="round"/>
<path d="M310.54 322.09C310.54 322.09 300.05 334.28 300.62 338.54C301.19 342.8 301.47 347.04 301.47 347.04L293.81 393.27C293.81 393.27 287.29 390.15 287.29 392.7V395.26L226 401.5L225.43 423.05L322.99 423.33C322.99 423.33 327.81 417.95 328.38 415.96C328.95 413.97 339.72 379.66 342.56 343.64C345.4 307.62 343.98 291.46 342.56 288.64C341.14 285.82 324.41 280.42 324.41 280.42" fill="#51C7CC"/>
<path d="M310.54 322.09C310.54 322.09 300.05 334.28 300.62 338.54C301.19 342.8 301.47 347.04 301.47 347.04L293.81 393.27C293.81 393.27 287.29 390.15 287.29 392.7V395.26L226 401.5L225.43 423.05L322.99 423.33C322.99 423.33 327.81 417.95 328.38 415.96C328.95 413.97 339.72 379.66 342.56 343.64C345.4 307.62 343.98 291.46 342.56 288.64C341.14 285.82 324.41 280.42 324.41 280.42" stroke="#263238" stroke-linecap="round" stroke-linejoin="round"/>
<path d="M296.08 393C296.08 393 305.15 398.95 310.54 400.37L296.08 393Z" fill="white"/>
<path d="M296.08 393C296.08 393 305.15 398.95 310.54 400.37" stroke="#263238" stroke-linecap="round" stroke-linejoin="round"/>
<path d="M211 335.47L218 313C220.839 310.219 223.324 307.098 225.4 303.71C228.4 298.64 228.4 289.13 227.93 287.44C227.46 285.75 234.06 278.15 235.93 275.44C237.8 272.73 238.88 267.83 236.35 264.24C233.82 260.65 232.55 266.57 230.86 269.31C229.17 272.05 223.25 274.8 223.25 274.8L217 279.88C217 279.88 206.65 288.96 206 290.23C205.35 291.5 204.1 295.51 204.1 295.51L204.95 307.76L199.46 329.09L211 335.47Z" fill="white" stroke="#263238" stroke-linecap="round" stroke-linejoin="round"/>
<path d="M212.73 272.49C212.73 272.49 217.8 264.49 219.28 261.93C220.76 259.37 223.08 249.26 224.56 249.93C226.04 250.6 227.56 253.93 227.1 258.38C226.64 262.83 221.39 272.95 221.39 272.95L212.73 272.49Z" stroke="#263238" stroke-linecap="round" stroke-linejoin="round"/>
<path d="M200.48 322.76L204.92 307.76L203 283.68L208.91 272.28L225.17 270.17C225.17 270.17 235.1 275.45 235.95 275.45C236.8 275.45 235.95 277.77 234.05 278.19C232.15 278.61 228.55 277.56 228.55 277.56L234.68 281.56C234.68 281.56 234.26 283.46 232.78 283.88C231.319 284.175 229.831 284.319 228.34 284.31C228.34 284.31 233.62 287.69 232.34 288.31C231.087 288.885 229.72 289.172 228.34 289.15H224.34L221.17 288.73L216.31 290.63C216.31 290.63 219.69 299.29 219.48 303.52C219.27 307.75 213.99 310.52 213.99 310.52" fill="white"/>
<path d="M200.48 322.76L204.92 307.76L203 283.68L208.91 272.28L225.17 270.17C225.17 270.17 235.1 275.45 235.95 275.45C236.8 275.45 235.95 277.77 234.05 278.19C232.15 278.61 228.55 277.56 228.55 277.56L234.68 281.56C234.68 281.56 234.26 283.46 232.78 283.88C231.319 284.175 229.831 284.319 228.34 284.31C228.34 284.31 233.62 287.69 232.34 288.31C231.087 288.885 229.72 289.172 228.34 289.15H224.34L221.17 288.73L216.31 290.63C216.31 290.63 219.69 299.29 219.48 303.52C219.27 307.75 213.99 310.52 213.99 310.52" stroke="#263238" stroke-linecap="round" stroke-linejoin="round"/>
<path d="M228.57 277.56C228.57 277.56 225.19 274.81 223.29 274.81C221.39 274.81 209.78 276.92 209.78 276.92" stroke="#263238" stroke-linecap="round" stroke-linejoin="round"/>
<path d="M228.36 284.32C228.36 284.32 222.87 281.32 221.18 281.32C219.49 281.32 206.18 284.7 206.18 284.7" stroke="#263238" stroke-linecap="round" stroke-linejoin="round"/>
<path d="M200.75 318.05L217.9 329.6C217.9 329.6 210.26 370.6 209.51 374.11C208.76 377.62 203.26 386.87 200.51 389.63C197.76 392.39 194.51 391.88 187 389.88C179.49 387.88 173 381.88 173.23 374.11C173.46 366.34 200.75 318.05 200.75 318.05Z" fill="#51C7CC" stroke="#263238" stroke-linecap="round" stroke-linejoin="round"/>
<path d="M112.11 417.42H107.13V418.95H112.11V417.42Z" fill="white" stroke="#263238" stroke-linecap="round" stroke-linejoin="round"/>
<path d="M119.01 417.42H114.03V418.95H119.01V417.42Z" fill="white" stroke="#263238" stroke-linecap="round" stroke-linejoin="round"/>
<path d="M125.91 417.42H120.93V418.95H125.91V417.42Z" fill="white" stroke="#263238" stroke-linecap="round" stroke-linejoin="round"/>
<path d="M132.82 417.42H127.84V418.95H132.82V417.42Z" fill="white" stroke="#263238" stroke-linecap="round" stroke-linejoin="round"/>
<path d="M139.72 417.42H134.74V418.95H139.72V417.42Z" fill="white" stroke="#263238" stroke-linecap="round" stroke-linejoin="round"/>
<path d="M146.62 417.42H141.64V418.95H146.62V417.42Z" fill="white" stroke="#263238" stroke-linecap="round" stroke-linejoin="round"/>
<path d="M153.52 417.42H148.54V418.95H153.52V417.42Z" fill="white" stroke="#263238" stroke-linecap="round" stroke-linejoin="round"/>
<path d="M160.42 417.42H155.44V418.95H160.42V417.42Z" fill="white" stroke="#263238" stroke-linecap="round" stroke-linejoin="round"/>
<path d="M167.32 417.42H162.34V418.95H167.32V417.42Z" fill="white" stroke="#263238" stroke-linecap="round" stroke-linejoin="round"/>
<path d="M174.22 417.42H169.24V418.95H174.22V417.42Z" fill="white" stroke="#263238" stroke-linecap="round" stroke-linejoin="round"/>
<path d="M181.13 417.42H176.15V418.95H181.13V417.42Z" fill="white" stroke="#263238" stroke-linecap="round" stroke-linejoin="round"/>
<path d="M188.03 417.42H183.05V418.95H188.03V417.42Z" fill="white" stroke="#263238" stroke-linecap="round" stroke-linejoin="round"/>
<path d="M194.93 417.42H189.95V418.95H194.93V417.42Z" fill="white" stroke="#263238" stroke-linecap="round" stroke-linejoin="round"/>
<path d="M201.83 417.42H196.85V418.95H201.83V417.42Z" fill="white" stroke="#263238" stroke-linecap="round" stroke-linejoin="round"/>
<path d="M208.73 417.42H203.75V418.95H208.73V417.42Z" fill="white" stroke="#263238" stroke-linecap="round" stroke-linejoin="round"/>
<path d="M215.63 417.42H210.65V418.95H215.63V417.42Z" fill="white" stroke="#263238" stroke-linecap="round" stroke-linejoin="round"/>
<path d="M227.66 418.63H104.27V422.97H227.66V418.63Z" fill="white" stroke="#263238" stroke-linecap="round" stroke-linejoin="round"/>
<path d="M227.65 418.63H180.35V422.97H227.65V418.63Z" fill="white" stroke="#263238" stroke-linecap="round" stroke-linejoin="round"/>
<path d="M142.77 380.62H45.7598L26.2798 277.46H123.29L142.77 380.62Z" fill="#263238" stroke="white" stroke-linecap="round" stroke-linejoin="round"/>
<path d="M139.82 378.01H45.7097L27.2197 280.07H121.32L139.82 378.01Z" fill="#263238" stroke="white" stroke-linecap="round" stroke-linejoin="round"/>
<path d="M121.7 370.21H51.73L37.98 297.4H107.95L121.7 370.21Z" fill="#263238" stroke="white" stroke-linecap="round" stroke-linejoin="round"/>
<path d="M37.9797 297.4L27.2197 280.07" stroke="#263238" stroke-linecap="round" stroke-linejoin="round"/>
<path d="M107.95 297.4L121.32 280.07" stroke="white" stroke-linecap="round" stroke-linejoin="round"/>
<path d="M121.7 370.21L139.82 378.01" stroke="white" stroke-linecap="round" stroke-linejoin="round"/>
<path d="M51.73 370.21L45.71 378.01" stroke="#263238" stroke-linecap="round" stroke-linejoin="round"/>
<path d="M80.18 348.4H64.25L74.39 339.36H90.32L80.18 348.4Z" fill="#263238" stroke="white" stroke-linecap="round" stroke-linejoin="round"/>
<path d="M133.03 417.54H74.75V423.33H133.03V417.54Z" fill="#263238" stroke="white" stroke-linecap="round" stroke-linejoin="round"/>
<path d="M99.73 423.33H83.8L64.25 401.12H80.18L99.73 423.33Z" fill="#263238" stroke="white" stroke-linecap="round" stroke-linejoin="round"/>
<path d="M80.18 348.77H64.25V400.89H80.18V348.77Z" fill="#263238" stroke="white" stroke-linecap="round" stroke-linejoin="round"/>
<path d="M313.41 413.42C315.686 417.551 319.144 420.908 323.34 423.06L313.41 413.42Z" fill="white"/>
<path d="M313.41 413.42C315.686 417.551 319.144 420.908 323.34 423.06" stroke="#263238" stroke-linecap="round" stroke-linejoin="round"/>
<path d="M14.0601 423.33H470.27" stroke="#D4F6F4" stroke-linecap="round" stroke-linejoin="round"/>
</svg>
